<svg version="1.0" xmlns="http://www.w3.org/2000/svg"
     width="100px" height="100px" viewBox="0 0 300.000000 300.000000"
     preserveAspectRatio="xMidYMid meet">
    <g transform="translate(0.000000,297.000000) scale(0.050000,-0.050000)"
       fill="#000000" stroke="none">
        <path d="M2760 4619 c-617 -94 -1182 -637 -1312 -1264 -126 -603 78 -1069 666
        -1522 312 -240 313 -242 328 -614 10 -230 22 -329 46 -376 140 -270 823 -265
        944 6 15 36 33 191 43 372 19 367 24 377 291 582 554 424 751 780 728 1317
        -18 427 -108 676 -225 623 -59 -27 -59 -38 -2 -253 168 -627 18 -1051 -525
        -1486 -366 -294 -422 -370 -438 -589 l-9 -135 -338 0 -337 0 0 95 c0 237 -114
        386 -522 689 -1233 914 15 2916 1424 2284 193 -87 316 30 132 125 -246 128
        -616 188 -894 146z m531 -3592 c-25 -162 -80 -206 -278 -222 -241 -19 -364 48
        -385 210 l-13 105 345 0 345 0 -14 -93z"/>
        <path d="M2911 3702 c-8 -13 -50 -38 -93 -55 -99 -40 -158 -113 -158 -197 0
        -121 101 -147 159 -42 172 310 623 20 517 -333 -28 -95 -170 -258 -261 -301
        -149 -71 -184 -135 -197 -360 -12 -223 -3 -254 82 -254 87 0 102 36 87 207
        -15 175 -10 184 142 283 440 285 448 804 17 1028 -68 35 -278 52 -295 24z"/>
        <path d="M2904 1896 c-33 -33 -30 -106 5 -135 39 -33 90 -20 123 30 52 78 -62
        171 -128 105z"/>
    </g>
</svg>
